# xmcd CD database file
#
# Track frame offsets:
#	150
#	18602
#	31717
#	56080
#	76805
#	97410
#	118365
#	133592
#	146235
#	163922
#
# Disc length: 2477 seconds
#
# Revision: 0
# Processed by: cddbd v1.5.1PL0 Copyright (c) Steve Scherf et al.
# Submitted via: CDex 1.50beta9
#
DISCID=9209ab0a
DTITLE=The Stylistics - In Fashion
DYEAR=1978
DGENRE=Soul
TTITLE0=There'll Never Be Another You
TTITLE1=First Impressions
TTITLE2=You're The Best Thing In My Life
TTITLE3=Looking At Love Again
TTITLE4=I Can't Stop Livin'
TTITLE5=I Just Can't Stop Loving You
TTITLE6=You Love's Too Good To Be Forgotten
TTITLE7=Smooth
TTITLE8=California Sun
TTITLE9=Sail Away
EXTD=YEAR: 1978
EXTT0=
EXTT1=
EXTT2=
EXTT3=
EXTT4=
EXTT5=
EXTT6=
EXTT7=
EXTT8=
EXTT9=
PLAYORDER=
